# MagicaVoxel @ Ephtracy

# group
o 

# material
mtllib untitled-2.mtl
usemtl palette

# normals
vn -1 0 0
vn 1 0 0
vn 0 0 1
vn 0 0 -1
vn 0 -1 0
vn 0 1 0

# texcoords
vt 0.951172 0.5
vt 0.955078 0.5
vt 0.958984 0.5
vt 0.962891 0.5

# verts
v -0.3 -1 0.2
v -0.3 -1 -0.3
v -0.3 -0.8 0.2
v -0.3 -0.8 -0.3
v -0.2 -1 0.3
v -0.2 -1 0.2
v -0.2 -1 -0.3
v -0.2 -1 -0.4
v -0.2 -0.8 0.3
v -0.2 -0.8 0.2
v -0.2 -0.8 -0.3
v -0.2 -0.8 -0.4
v -0.2 -0.7 0.2
v -0.2 -0.7 0.1
v -0.2 -0.7 -0.2
v -0.2 -0.7 -0.3
v -0.2 0.2 0.2
v -0.2 0.2 0.1
v -0.2 0.5 0.2
v -0.2 0.5 0.1
v -0.2 0.6 0.1
v -0.2 0.6 0
v -0.2 0.7 0
v -0.2 0.7 -0.2
v -0.1 -0.7 0.2
v -0.1 -0.7 0.1
v -0.1 -0.7 -0.2
v -0.1 -0.7 -0.3
v -0.1 0.2 0.2
v -0.1 0.2 0.1
v -0.1 0.5 0.2
v -0.1 0.5 0.1
v -0.1 0.6 0.2
v -0.1 0.6 0.1
v -0.1 0.7 -0.2
v -0.1 0.7 -0.3
v 0 -0.4 -0.3
v 0 -0.4 -0.4
v 0 -0.2 -0.3
v 0 -0.2 -0.4
v 0 0.6 0.2
v 0 0.6 0.1
v 0 0.6 0
v 0 0.6 -0.1
v 0 0.7 0.2
v 0 0.7 0.1
v 0 0.7 0
v 0 0.7 -0.1
v 0 0.8 0
v 0 0.8 -0.1
v 0 0.9 0
v 0 0.9 -0.1
v 0.1 0.6 -0.2
v 0.1 0.6 -0.3
v 0.1 0.7 -0.2
v 0.1 0.7 -0.3
v 0.2 0.6 0.1
v 0.2 0.6 0
v 0.2 0.6 -0.1
v 0.2 0.6 -0.2
v 0.2 0.7 0.1
v 0.2 0.7 0
v 0.2 0.7 -0.1
v 0.2 0.7 -0.2
v -0.1 0.6 0
v -0.1 0.6 -0.2
v -0.1 0.7 0
v -0.1 0.7 -0.2
v 0 0.6 -0.2
v 0 0.6 -0.3
v 0 0.7 -0.2
v 0 0.7 -0.3
v 0.1 -0.4 -0.3
v 0.1 -0.4 -0.4
v 0.1 -0.2 -0.3
v 0.1 -0.2 -0.4
v 0.1 0.6 0
v 0.1 0.6 -0.1
v 0.1 0.7 0
v 0.1 0.7 -0.1
v 0.1 0.8 0
v 0.1 0.8 -0.1
v 0.1 0.9 0
v 0.1 0.9 -0.1
v 0.2 -0.7 0.2
v 0.2 -0.7 0.1
v 0.2 -0.7 -0.2
v 0.2 -0.7 -0.3
v 0.2 0.7 0.2
v 0.2 0.7 0.1
v 0.2 0.7 -0.2
v 0.2 0.7 -0.3
v 0.3 -1 0.3
v 0.3 -1 0.2
v 0.3 -1 -0.3
v 0.3 -1 -0.4
v 0.3 -0.8 0.3
v 0.3 -0.8 0.2
v 0.3 -0.8 -0.3
v 0.3 -0.8 -0.4
v 0.3 -0.7 0.2
v 0.3 -0.7 0.1
v 0.3 -0.7 -0.2
v 0.3 -0.7 -0.3
v 0.3 0.1 0
v 0.3 0.1 -0.1
v 0.3 0.3 0
v 0.3 0.3 -0.1
v 0.3 0.6 0
v 0.3 0.6 -0.1
v 0.3 0.7 0.1
v 0.3 0.7 0
v 0.3 0.7 -0.1
v 0.3 0.7 -0.2
v 0.4 -1 0.2
v 0.4 -1 -0.3
v 0.4 -0.8 0.2
v 0.4 -0.8 -0.3
v 0.4 0.1 0
v 0.4 0.1 -0.1
v 0.4 0.3 0
v 0.4 0.3 -0.1
v -0.2 -1 0.3
v -0.2 -0.8 0.3
v 0.3 -1 0.3
v 0.3 -0.8 0.3
v -0.3 -1 0.2
v -0.3 -0.8 0.2
v -0.2 -1 0.2
v -0.2 -0.8 0.2
v -0.2 -0.7 0.2
v -0.2 0.2 0.2
v -0.2 0.5 0.2
v -0.1 -0.7 0.2
v -0.1 0.2 0.2
v -0.1 0.5 0.2
v -0.1 0.6 0.2
v 0 0.6 0.2
v 0 0.7 0.2
v 0.2 -0.7 0.2
v 0.2 0.7 0.2
v 0.3 -1 0.2
v 0.3 -0.8 0.2
v 0.3 -0.7 0.2
v 0.4 -1 0.2
v 0.4 -0.8 0.2
v -0.2 -0.7 0.1
v -0.2 0.2 0.1
v -0.2 0.5 0.1
v -0.2 0.6 0.1
v -0.1 -0.7 0.1
v -0.1 0.2 0.1
v -0.1 0.5 0.1
v -0.1 0.6 0.1
v 0.2 -0.7 0.1
v 0.2 0.7 0.1
v 0.3 -0.7 0.1
v 0.3 0.7 0.1
v -0.2 0.6 0
v -0.2 0.7 0
v -0.1 0.6 0
v -0.1 0.7 0
v 0 0.6 0
v 0 0.7 0
v 0 0.8 0
v 0 0.9 0
v 0.1 0.6 0
v 0.1 0.7 0
v 0.1 0.8 0
v 0.1 0.9 0
v 0.3 0.1 0
v 0.3 0.3 0
v 0.4 0.1 0
v 0.4 0.3 0
v 0.2 0.6 -0.1
v 0.2 0.7 -0.1
v 0.3 0.6 -0.1
v 0.3 0.7 -0.1
v -0.1 0.6 -0.2
v -0.1 0.7 -0.2
v 0 0.6 -0.2
v 0 0.7 -0.2
v 0.1 0.6 -0.2
v 0.1 0.7 -0.2
v 0.2 0.6 -0.2
v 0.2 0.7 -0.2
v 0 0.6 0.1
v 0 0.7 0.1
v 0.2 0.6 0.1
v 0.2 0.7 0.1
v 0.2 0.6 0
v 0.2 0.7 0
v 0.3 0.6 0
v 0.3 0.7 0
v 0 0.6 -0.1
v 0 0.7 -0.1
v 0 0.8 -0.1
v 0 0.9 -0.1
v 0.1 0.6 -0.1
v 0.1 0.7 -0.1
v 0.1 0.8 -0.1
v 0.1 0.9 -0.1
v 0.3 0.1 -0.1
v 0.3 0.3 -0.1
v 0.4 0.1 -0.1
v 0.4 0.3 -0.1
v -0.2 -0.7 -0.2
v -0.2 0.7 -0.2
v -0.1 -0.7 -0.2
v -0.1 0.7 -0.2
v 0.2 -0.7 -0.2
v 0.2 0.7 -0.2
v 0.3 -0.7 -0.2
v 0.3 0.7 -0.2
v -0.3 -1 -0.3
v -0.3 -0.8 -0.3
v -0.2 -1 -0.3
v -0.2 -0.8 -0.3
v -0.2 -0.7 -0.3
v -0.1 -0.7 -0.3
v -0.1 0.7 -0.3
v 0 -0.4 -0.3
v 0 -0.2 -0.3
v 0 0.6 -0.3
v 0 0.7 -0.3
v 0.1 -0.4 -0.3
v 0.1 -0.2 -0.3
v 0.1 0.6 -0.3
v 0.1 0.7 -0.3
v 0.2 -0.7 -0.3
v 0.2 0.7 -0.3
v 0.3 -1 -0.3
v 0.3 -0.8 -0.3
v 0.3 -0.7 -0.3
v 0.4 -1 -0.3
v 0.4 -0.8 -0.3
v -0.2 -1 -0.4
v -0.2 -0.8 -0.4
v 0 -0.4 -0.4
v 0 -0.2 -0.4
v 0.1 -0.4 -0.4
v 0.1 -0.2 -0.4
v 0.3 -1 -0.4
v 0.3 -0.8 -0.4
v -0.2 -1 0.3
v 0.3 -1 0.3
v -0.3 -1 0.2
v -0.2 -1 0.2
v 0.3 -1 0.2
v 0.4 -1 0.2
v -0.3 -1 -0.3
v -0.2 -1 -0.3
v 0.3 -1 -0.3
v 0.4 -1 -0.3
v -0.2 -1 -0.4
v 0.3 -1 -0.4
v 0 -0.4 -0.3
v 0.1 -0.4 -0.3
v 0 -0.4 -0.4
v 0.1 -0.4 -0.4
v 0.3 0.1 0
v 0.4 0.1 0
v 0.3 0.1 -0.1
v 0.4 0.1 -0.1
v -0.2 0.2 0.2
v -0.1 0.2 0.2
v -0.2 0.2 0.1
v -0.1 0.2 0.1
v -0.2 -0.8 0.3
v 0.3 -0.8 0.3
v -0.3 -0.8 0.2
v -0.2 -0.8 0.2
v 0.3 -0.8 0.2
v 0.4 -0.8 0.2
v -0.3 -0.8 -0.3
v -0.2 -0.8 -0.3
v 0.3 -0.8 -0.3
v 0.4 -0.8 -0.3
v -0.2 -0.8 -0.4
v 0.3 -0.8 -0.4
v -0.2 -0.7 0.2
v -0.1 -0.7 0.2
v 0.2 -0.7 0.2
v 0.3 -0.7 0.2
v -0.2 -0.7 0.1
v -0.1 -0.7 0.1
v 0.2 -0.7 0.1
v 0.3 -0.7 0.1
v -0.2 -0.7 -0.2
v -0.1 -0.7 -0.2
v 0.2 -0.7 -0.2
v 0.3 -0.7 -0.2
v -0.2 -0.7 -0.3
v -0.1 -0.7 -0.3
v 0.2 -0.7 -0.3
v 0.3 -0.7 -0.3
v 0 -0.2 -0.3
v 0.1 -0.2 -0.3
v 0 -0.2 -0.4
v 0.1 -0.2 -0.4
v 0.3 0.3 0
v 0.4 0.3 0
v 0.3 0.3 -0.1
v 0.4 0.3 -0.1
v -0.2 0.5 0.2
v -0.1 0.5 0.2
v -0.2 0.5 0.1
v -0.1 0.5 0.1
v -0.1 0.6 0.2
v 0 0.6 0.2
v -0.2 0.6 0.1
v -0.1 0.6 0.1
v 0 0.6 0.1
v 0.2 0.6 0.1
v -0.2 0.6 0
v -0.1 0.6 0
v 0 0.6 0
v 0.1 0.6 0
v 0.2 0.6 0
v 0.3 0.6 0
v 0 0.6 -0.1
v 0.1 0.6 -0.1
v 0.2 0.6 -0.1
v 0.3 0.6 -0.1
v -0.1 0.6 -0.2
v 0 0.6 -0.2
v 0.1 0.6 -0.2
v 0.2 0.6 -0.2
v 0 0.6 -0.3
v 0.1 0.6 -0.3
v 0 0.7 0.2
v 0.2 0.7 0.2
v 0 0.7 0.1
v 0.2 0.7 0.1
v 0.3 0.7 0.1
v -0.2 0.7 0
v -0.1 0.7 0
v 0.2 0.7 0
v 0.3 0.7 0
v 0.2 0.7 -0.1
v 0.3 0.7 -0.1
v -0.2 0.7 -0.2
v -0.1 0.7 -0.2
v 0 0.7 -0.2
v 0.1 0.7 -0.2
v 0.2 0.7 -0.2
v 0.3 0.7 -0.2
v -0.1 0.7 -0.3
v 0 0.7 -0.3
v 0.1 0.7 -0.3
v 0.2 0.7 -0.3
v 0 0.9 0
v 0.1 0.9 0
v 0 0.9 -0.1
v 0.1 0.9 -0.1

# faces
f 3/4/1 2/4/1 1/4/1
f 4/4/1 2/4/1 3/4/1
f 9/4/1 6/4/1 5/4/1
f 10/4/1 6/4/1 9/4/1
f 11/4/1 8/4/1 7/4/1
f 12/4/1 8/4/1 11/4/1
f 13/4/1 11/4/1 10/4/1
f 14/4/1 11/4/1 13/4/1
f 15/4/1 11/4/1 14/4/1
f 16/4/1 11/4/1 15/4/1
f 18/4/1 15/4/1 14/4/1
f 19/4/1 18/4/1 17/4/1
f 20/4/1 15/4/1 18/4/1
f 20/4/1 18/4/1 19/4/1
f 21/4/1 15/4/1 20/4/1
f 22/4/1 15/4/1 21/4/1
f 23/4/1 15/4/1 22/4/1
f 24/4/1 15/4/1 23/4/1
f 29/4/1 26/4/1 25/4/1
f 30/4/1 26/4/1 29/4/1
f 33/4/1 32/4/1 31/4/1
f 34/4/1 32/4/1 33/4/1
f 35/4/1 28/4/1 27/4/1
f 36/4/1 28/4/1 35/4/1
f 39/4/1 38/4/1 37/4/1
f 40/4/1 38/4/1 39/4/1
f 45/4/1 42/4/1 41/4/1
f 46/4/1 42/4/1 45/4/1
f 47/3/1 44/3/1 43/3/1
f 48/3/1 44/3/1 47/3/1
f 49/2/1 48/2/1 47/2/1
f 50/2/1 48/2/1 49/2/1
f 51/1/1 50/1/1 49/1/1
f 52/1/1 50/1/1 51/1/1
f 55/4/1 54/4/1 53/4/1
f 56/4/1 54/4/1 55/4/1
f 61/4/1 58/4/1 57/4/1
f 62/4/1 58/4/1 61/4/1
f 63/4/1 60/4/1 59/4/1
f 64/4/1 60/4/1 63/4/1
f 65/4/2 66/4/2 67/4/2
f 67/4/2 66/4/2 68/4/2
f 69/4/2 70/4/2 71/4/2
f 71/4/2 70/4/2 72/4/2
f 73/4/2 74/4/2 75/4/2
f 75/4/2 74/4/2 76/4/2
f 77/3/2 78/3/2 79/3/2
f 79/3/2 78/3/2 80/3/2
f 79/2/2 80/2/2 81/2/2
f 81/2/2 80/2/2 82/2/2
f 81/1/2 82/1/2 83/1/2
f 83/1/2 82/1/2 84/1/2
f 85/4/2 86/4/2 89/4/2
f 89/4/2 86/4/2 90/4/2
f 87/4/2 88/4/2 91/4/2
f 91/4/2 88/4/2 92/4/2
f 93/4/2 94/4/2 97/4/2
f 97/4/2 94/4/2 98/4/2
f 95/4/2 96/4/2 99/4/2
f 99/4/2 96/4/2 100/4/2
f 98/4/2 99/4/2 101/4/2
f 101/4/2 99/4/2 102/4/2
f 102/4/2 99/4/2 103/4/2
f 103/4/2 99/4/2 104/4/2
f 102/4/2 103/4/2 105/4/2
f 105/4/2 103/4/2 106/4/2
f 102/4/2 105/4/2 107/4/2
f 106/4/2 103/4/2 108/4/2
f 102/4/2 107/4/2 109/4/2
f 107/4/2 108/4/2 109/4/2
f 108/4/2 103/4/2 110/4/2
f 109/4/2 108/4/2 110/4/2
f 102/4/2 109/4/2 111/4/2
f 111/4/2 109/4/2 112/4/2
f 110/4/2 103/4/2 113/4/2
f 113/4/2 103/4/2 114/4/2
f 115/4/2 116/4/2 117/4/2
f 117/4/2 116/4/2 118/4/2
f 119/4/2 120/4/2 121/4/2
f 121/4/2 120/4/2 122/4/2
f 125/4/3 124/4/3 123/4/3
f 126/4/3 124/4/3 125/4/3
f 129/4/3 128/4/3 127/4/3
f 130/4/3 128/4/3 129/4/3
f 134/4/3 131/4/3 130/4/3
f 135/4/3 133/4/3 132/4/3
f 136/4/3 133/4/3 135/4/3
f 138/4/3 135/4/3 134/4/3
f 138/4/3 137/4/3 136/4/3
f 138/4/3 136/4/3 135/4/3
f 140/4/3 134/4/3 130/4/3
f 140/4/3 139/4/3 138/4/3
f 140/4/3 138/4/3 134/4/3
f 141/4/3 139/4/3 140/4/3
f 143/4/3 140/4/3 130/4/3
f 144/4/3 140/4/3 143/4/3
f 145/4/3 143/4/3 142/4/3
f 146/4/3 143/4/3 145/4/3
f 151/4/3 148/4/3 147/4/3
f 152/4/3 148/4/3 151/4/3
f 153/4/3 150/4/3 149/4/3
f 154/4/3 150/4/3 153/4/3
f 157/4/3 156/4/3 155/4/3
f 158/4/3 156/4/3 157/4/3
f 161/4/3 160/4/3 159/4/3
f 162/4/3 160/4/3 161/4/3
f 167/3/3 164/3/3 163/3/3
f 168/2/3 165/2/3 164/2/3
f 168/3/3 164/3/3 167/3/3
f 169/1/3 166/1/3 165/1/3
f 169/2/3 165/2/3 168/2/3
f 170/1/3 166/1/3 169/1/3
f 173/4/3 172/4/3 171/4/3
f 174/4/3 172/4/3 173/4/3
f 177/4/3 176/4/3 175/4/3
f 178/4/3 176/4/3 177/4/3
f 181/4/3 180/4/3 179/4/3
f 182/4/3 180/4/3 181/4/3
f 185/4/3 184/4/3 183/4/3
f 186/4/3 184/4/3 185/4/3
f 187/4/4 188/4/4 189/4/4
f 189/4/4 188/4/4 190/4/4
f 191/4/4 192/4/4 193/4/4
f 193/4/4 192/4/4 194/4/4
f 195/3/4 196/3/4 199/3/4
f 196/2/4 197/2/4 200/2/4
f 199/3/4 196/3/4 200/3/4
f 197/1/4 198/1/4 201/1/4
f 200/2/4 197/2/4 201/2/4
f 201/1/4 198/1/4 202/1/4
f 203/4/4 204/4/4 205/4/4
f 205/4/4 204/4/4 206/4/4
f 207/4/4 208/4/4 209/4/4
f 209/4/4 208/4/4 210/4/4
f 211/4/4 212/4/4 213/4/4
f 213/4/4 212/4/4 214/4/4
f 215/4/4 216/4/4 217/4/4
f 217/4/4 216/4/4 218/4/4
f 218/4/4 219/4/4 220/4/4
f 220/4/4 221/4/4 222/4/4
f 222/4/4 221/4/4 223/4/4
f 223/4/4 221/4/4 224/4/4
f 224/4/4 221/4/4 225/4/4
f 220/4/4 222/4/4 226/4/4
f 223/4/4 224/4/4 227/4/4
f 227/4/4 224/4/4 228/4/4
f 218/4/4 220/4/4 230/4/4
f 228/4/4 229/4/4 230/4/4
f 227/4/4 228/4/4 230/4/4
f 226/4/4 227/4/4 230/4/4
f 220/4/4 226/4/4 230/4/4
f 230/4/4 229/4/4 231/4/4
f 218/4/4 230/4/4 233/4/4
f 233/4/4 230/4/4 234/4/4
f 232/4/4 233/4/4 235/4/4
f 235/4/4 233/4/4 236/4/4
f 239/4/4 240/4/4 241/4/4
f 241/4/4 240/4/4 242/4/4
f 237/4/4 238/4/4 243/4/4
f 243/4/4 238/4/4 244/4/4
f 248/4/5 246/4/5 245/4/5
f 249/4/5 246/4/5 248/4/5
f 251/4/5 248/4/5 247/4/5
f 251/4/5 250/4/5 249/4/5
f 251/4/5 249/4/5 248/4/5
f 252/4/5 250/4/5 251/4/5
f 253/4/5 250/4/5 252/4/5
f 254/4/5 250/4/5 253/4/5
f 255/4/5 253/4/5 252/4/5
f 256/4/5 253/4/5 255/4/5
f 259/4/5 258/4/5 257/4/5
f 260/4/5 258/4/5 259/4/5
f 263/4/5 262/4/5 261/4/5
f 264/4/5 262/4/5 263/4/5
f 267/4/5 266/4/5 265/4/5
f 268/4/5 266/4/5 267/4/5
f 269/4/6 270/4/6 272/4/6
f 272/4/6 270/4/6 273/4/6
f 271/4/6 272/4/6 275/4/6
f 275/4/6 272/4/6 276/4/6
f 273/4/6 274/4/6 277/4/6
f 277/4/6 274/4/6 278/4/6
f 276/4/6 277/4/6 279/4/6
f 279/4/6 277/4/6 280/4/6
f 281/4/6 282/4/6 285/4/6
f 285/4/6 282/4/6 286/4/6
f 283/4/6 284/4/6 287/4/6
f 287/4/6 284/4/6 288/4/6
f 289/4/6 290/4/6 293/4/6
f 293/4/6 290/4/6 294/4/6
f 291/4/6 292/4/6 295/4/6
f 295/4/6 292/4/6 296/4/6
f 297/4/6 298/4/6 299/4/6
f 299/4/6 298/4/6 300/4/6
f 301/4/6 302/4/6 303/4/6
f 303/4/6 302/4/6 304/4/6
f 305/4/6 306/4/6 307/4/6
f 307/4/6 306/4/6 308/4/6
f 309/4/6 310/4/6 312/4/6
f 312/4/6 310/4/6 313/4/6
f 311/4/6 312/4/6 315/4/6
f 313/4/6 314/4/6 315/4/6
f 312/4/6 313/4/6 315/4/6
f 315/4/6 314/4/6 316/4/6
f 316/4/6 314/4/6 317/4/6
f 317/4/6 314/4/6 318/4/6
f 318/4/6 314/4/6 319/4/6
f 316/4/6 317/4/6 321/4/6
f 319/4/6 320/4/6 322/4/6
f 318/4/6 319/4/6 322/4/6
f 322/4/6 320/4/6 323/4/6
f 323/4/6 320/4/6 324/4/6
f 316/4/6 321/4/6 325/4/6
f 321/4/6 322/4/6 325/4/6
f 322/4/6 323/4/6 325/4/6
f 325/4/6 323/4/6 326/4/6
f 326/4/6 323/4/6 327/4/6
f 327/4/6 323/4/6 328/4/6
f 326/4/6 327/4/6 329/4/6
f 329/4/6 327/4/6 330/4/6
f 331/4/6 332/4/6 333/4/6
f 333/4/6 332/4/6 334/4/6
f 334/4/6 335/4/6 338/4/6
f 338/4/6 335/4/6 339/4/6
f 336/4/6 337/4/6 342/4/6
f 342/4/6 337/4/6 343/4/6
f 340/4/6 341/4/6 346/4/6
f 346/4/6 341/4/6 347/4/6
f 343/4/6 344/4/6 348/4/6
f 348/4/6 344/4/6 349/4/6
f 345/4/6 346/4/6 350/4/6
f 350/4/6 346/4/6 351/4/6
f 352/1/6 353/1/6 354/1/6
f 354/1/6 353/1/6 355/1/6
