# MagicaVoxel @ Ephtracy

# group
o 

# material
mtllib untitled-1.mtl
usemtl palette

# normals
vn -1 0 0
vn 1 0 0
vn 0 0 1
vn 0 0 -1
vn 0 -1 0
vn 0 1 0

# texcoords
vt 0.951172 0.5
vt 0.955078 0.5
vt 0.958984 0.5
vt 0.962891 0.5

# verts
v -0.3 -0.4 0.2
v -0.3 -0.4 -0.3
v -0.3 0.1 0.2
v -0.3 0.1 -0.3
v -0.2 -0.4 0.3
v -0.2 -0.4 0.2
v -0.2 -0.4 -0.3
v -0.2 -0.4 -0.4
v -0.2 0.1 0.3
v -0.2 0.1 0.2
v -0.2 0.1 0.1
v -0.2 0.1 -0.2
v -0.2 0.1 -0.3
v -0.2 0.1 -0.4
v -0.2 0.2 0.1
v -0.2 0.2 -0.2
v -0.1 0.1 0.2
v -0.1 0.1 0.1
v -0.1 0.1 -0.2
v -0.1 0.1 -0.3
v -0.1 0.2 0.2
v -0.1 0.2 0.1
v -0.1 0.2 -0.2
v -0.1 0.2 -0.3
v 0 0.1 0
v 0 0.1 -0.1
v 0 0.2 0
v 0 0.2 -0.1
v 0 0.3 0
v 0 0.3 -0.1
v 0 0.4 0
v 0 0.4 -0.1
v 0.2 0.1 0.1
v 0.2 0.1 -0.2
v 0.2 0.2 0.1
v 0.2 0.2 -0.2
v -0.1 0.1 0.1
v -0.1 0.1 -0.2
v -0.1 0.2 0.1
v -0.1 0.2 -0.2
v 0.1 0.1 0
v 0.1 0.1 -0.1
v 0.1 0.2 0
v 0.1 0.2 -0.1
v 0.1 0.3 0
v 0.1 0.3 -0.1
v 0.1 0.4 0
v 0.1 0.4 -0.1
v 0.2 0.1 0.2
v 0.2 0.1 0.1
v 0.2 0.1 -0.2
v 0.2 0.1 -0.3
v 0.2 0.2 0.2
v 0.2 0.2 0.1
v 0.2 0.2 -0.2
v 0.2 0.2 -0.3
v 0.3 -0.4 0.3
v 0.3 -0.4 0.2
v 0.3 -0.4 -0.3
v 0.3 -0.4 -0.4
v 0.3 0.1 0.3
v 0.3 0.1 0.2
v 0.3 0.1 0.1
v 0.3 0.1 -0.2
v 0.3 0.1 -0.3
v 0.3 0.1 -0.4
v 0.3 0.2 0.1
v 0.3 0.2 -0.2
v 0.4 -0.4 0.2
v 0.4 -0.4 -0.3
v 0.4 0.1 0.2
v 0.4 0.1 -0.3
v -0.2 -0.4 0.3
v -0.2 0.1 0.3
v 0.3 -0.4 0.3
v 0.3 0.1 0.3
v -0.3 -0.4 0.2
v -0.3 0.1 0.2
v -0.2 -0.4 0.2
v -0.2 0.1 0.2
v -0.1 0.1 0.2
v -0.1 0.2 0.2
v 0.2 0.1 0.2
v 0.2 0.2 0.2
v 0.3 -0.4 0.2
v 0.3 0.1 0.2
v 0.4 -0.4 0.2
v 0.4 0.1 0.2
v -0.2 0.1 0.1
v -0.2 0.2 0.1
v -0.1 0.1 0.1
v -0.1 0.2 0.1
v 0.2 0.1 0.1
v 0.2 0.2 0.1
v 0.3 0.1 0.1
v 0.3 0.2 0.1
v 0 0.1 0
v 0 0.2 0
v 0 0.3 0
v 0 0.4 0
v 0.1 0.1 0
v 0.1 0.2 0
v 0.1 0.3 0
v 0.1 0.4 0
v -0.1 0.1 -0.2
v -0.1 0.2 -0.2
v 0.2 0.1 -0.2
v 0.2 0.2 -0.2
v -0.1 0.1 0.1
v -0.1 0.2 0.1
v 0.2 0.1 0.1
v 0.2 0.2 0.1
v 0 0.1 -0.1
v 0 0.2 -0.1
v 0 0.3 -0.1
v 0 0.4 -0.1
v 0.1 0.1 -0.1
v 0.1 0.2 -0.1
v 0.1 0.3 -0.1
v 0.1 0.4 -0.1
v -0.2 0.1 -0.2
v -0.2 0.2 -0.2
v -0.1 0.1 -0.2
v -0.1 0.2 -0.2
v 0.2 0.1 -0.2
v 0.2 0.2 -0.2
v 0.3 0.1 -0.2
v 0.3 0.2 -0.2
v -0.3 -0.4 -0.3
v -0.3 0.1 -0.3
v -0.2 -0.4 -0.3
v -0.2 0.1 -0.3
v -0.1 0.1 -0.3
v -0.1 0.2 -0.3
v 0.2 0.1 -0.3
v 0.2 0.2 -0.3
v 0.3 -0.4 -0.3
v 0.3 0.1 -0.3
v 0.4 -0.4 -0.3
v 0.4 0.1 -0.3
v -0.2 -0.4 -0.4
v -0.2 0.1 -0.4
v 0.3 -0.4 -0.4
v 0.3 0.1 -0.4
v -0.2 -0.4 0.3
v 0.3 -0.4 0.3
v -0.3 -0.4 0.2
v -0.2 -0.4 0.2
v 0.3 -0.4 0.2
v 0.4 -0.4 0.2
v -0.3 -0.4 -0.3
v -0.2 -0.4 -0.3
v 0.3 -0.4 -0.3
v 0.4 -0.4 -0.3
v -0.2 -0.4 -0.4
v 0.3 -0.4 -0.4
v -0.2 0.1 0.3
v 0.3 0.1 0.3
v -0.3 0.1 0.2
v -0.2 0.1 0.2
v -0.1 0.1 0.2
v 0.2 0.1 0.2
v 0.3 0.1 0.2
v 0.4 0.1 0.2
v -0.2 0.1 0.1
v -0.1 0.1 0.1
v 0.2 0.1 0.1
v 0.3 0.1 0.1
v 0 0.1 0
v 0.1 0.1 0
v 0 0.1 -0.1
v 0.1 0.1 -0.1
v -0.2 0.1 -0.2
v -0.1 0.1 -0.2
v 0.2 0.1 -0.2
v 0.3 0.1 -0.2
v -0.3 0.1 -0.3
v -0.2 0.1 -0.3
v -0.1 0.1 -0.3
v 0.2 0.1 -0.3
v 0.3 0.1 -0.3
v 0.4 0.1 -0.3
v -0.2 0.1 -0.4
v 0.3 0.1 -0.4
v -0.1 0.2 0.2
v 0.2 0.2 0.2
v -0.2 0.2 0.1
v -0.1 0.2 0.1
v 0.2 0.2 0.1
v 0.3 0.2 0.1
v -0.2 0.2 -0.2
v -0.1 0.2 -0.2
v 0.2 0.2 -0.2
v 0.3 0.2 -0.2
v -0.1 0.2 -0.3
v 0.2 0.2 -0.3
v 0 0.4 0
v 0.1 0.4 0
v 0 0.4 -0.1
v 0.1 0.4 -0.1

# faces
f 3/4/1 2/4/1 1/4/1
f 4/4/1 2/4/1 3/4/1
f 9/4/1 6/4/1 5/4/1
f 10/4/1 6/4/1 9/4/1
f 13/4/1 8/4/1 7/4/1
f 14/4/1 8/4/1 13/4/1
f 15/4/1 12/4/1 11/4/1
f 16/4/1 12/4/1 15/4/1
f 21/4/1 18/4/1 17/4/1
f 22/4/1 18/4/1 21/4/1
f 23/4/1 20/4/1 19/4/1
f 24/4/1 20/4/1 23/4/1
f 27/3/1 26/3/1 25/3/1
f 28/3/1 26/3/1 27/3/1
f 29/2/1 28/2/1 27/2/1
f 30/2/1 28/2/1 29/2/1
f 31/1/1 30/1/1 29/1/1
f 32/1/1 30/1/1 31/1/1
f 35/4/1 34/4/1 33/4/1
f 36/4/1 34/4/1 35/4/1
f 37/4/2 38/4/2 39/4/2
f 39/4/2 38/4/2 40/4/2
f 41/3/2 42/3/2 43/3/2
f 43/3/2 42/3/2 44/3/2
f 43/2/2 44/2/2 45/2/2
f 45/2/2 44/2/2 46/2/2
f 45/1/2 46/1/2 47/1/2
f 47/1/2 46/1/2 48/1/2
f 49/4/2 50/4/2 53/4/2
f 53/4/2 50/4/2 54/4/2
f 51/4/2 52/4/2 55/4/2
f 55/4/2 52/4/2 56/4/2
f 57/4/2 58/4/2 61/4/2
f 61/4/2 58/4/2 62/4/2
f 59/4/2 60/4/2 65/4/2
f 65/4/2 60/4/2 66/4/2
f 63/4/2 64/4/2 67/4/2
f 67/4/2 64/4/2 68/4/2
f 69/4/2 70/4/2 71/4/2
f 71/4/2 70/4/2 72/4/2
f 75/4/3 74/4/3 73/4/3
f 76/4/3 74/4/3 75/4/3
f 79/4/3 78/4/3 77/4/3
f 80/4/3 78/4/3 79/4/3
f 83/4/3 82/4/3 81/4/3
f 84/4/3 82/4/3 83/4/3
f 87/4/3 86/4/3 85/4/3
f 88/4/3 86/4/3 87/4/3
f 91/4/3 90/4/3 89/4/3
f 92/4/3 90/4/3 91/4/3
f 95/4/3 94/4/3 93/4/3
f 96/4/3 94/4/3 95/4/3
f 101/3/3 98/3/3 97/3/3
f 102/2/3 99/2/3 98/2/3
f 102/3/3 98/3/3 101/3/3
f 103/1/3 100/1/3 99/1/3
f 103/2/3 99/2/3 102/2/3
f 104/1/3 100/1/3 103/1/3
f 107/4/3 106/4/3 105/4/3
f 108/4/3 106/4/3 107/4/3
f 109/4/4 110/4/4 111/4/4
f 111/4/4 110/4/4 112/4/4
f 113/3/4 114/3/4 117/3/4
f 114/2/4 115/2/4 118/2/4
f 117/3/4 114/3/4 118/3/4
f 115/1/4 116/1/4 119/1/4
f 118/2/4 115/2/4 119/2/4
f 119/1/4 116/1/4 120/1/4
f 121/4/4 122/4/4 123/4/4
f 123/4/4 122/4/4 124/4/4
f 125/4/4 126/4/4 127/4/4
f 127/4/4 126/4/4 128/4/4
f 129/4/4 130/4/4 131/4/4
f 131/4/4 130/4/4 132/4/4
f 133/4/4 134/4/4 135/4/4
f 135/4/4 134/4/4 136/4/4
f 137/4/4 138/4/4 139/4/4
f 139/4/4 138/4/4 140/4/4
f 141/4/4 142/4/4 143/4/4
f 143/4/4 142/4/4 144/4/4
f 148/4/5 146/4/5 145/4/5
f 149/4/5 146/4/5 148/4/5
f 151/4/5 148/4/5 147/4/5
f 151/4/5 150/4/5 149/4/5
f 151/4/5 149/4/5 148/4/5
f 152/4/5 150/4/5 151/4/5
f 153/4/5 150/4/5 152/4/5
f 154/4/5 150/4/5 153/4/5
f 155/4/5 153/4/5 152/4/5
f 156/4/5 153/4/5 155/4/5
f 157/4/6 158/4/6 160/4/6
f 160/4/6 158/4/6 161/4/6
f 161/4/6 158/4/6 162/4/6
f 162/4/6 158/4/6 163/4/6
f 159/4/6 160/4/6 165/4/6
f 160/4/6 161/4/6 165/4/6
f 165/4/6 161/4/6 166/4/6
f 163/4/6 164/4/6 167/4/6
f 162/4/6 163/4/6 167/4/6
f 167/4/6 164/4/6 168/4/6
f 166/4/6 167/4/6 169/4/6
f 169/4/6 167/4/6 170/4/6
f 166/4/6 169/4/6 171/4/6
f 170/4/6 167/4/6 172/4/6
f 159/4/6 165/4/6 173/4/6
f 171/4/6 172/4/6 174/4/6
f 166/4/6 171/4/6 174/4/6
f 172/4/6 167/4/6 175/4/6
f 174/4/6 172/4/6 175/4/6
f 168/4/6 164/4/6 176/4/6
f 159/4/6 173/4/6 177/4/6
f 173/4/6 174/4/6 177/4/6
f 177/4/6 174/4/6 178/4/6
f 178/4/6 174/4/6 179/4/6
f 175/4/6 176/4/6 180/4/6
f 176/4/6 164/4/6 181/4/6
f 180/4/6 176/4/6 181/4/6
f 181/4/6 164/4/6 182/4/6
f 178/4/6 179/4/6 183/4/6
f 179/4/6 180/4/6 183/4/6
f 180/4/6 181/4/6 183/4/6
f 183/4/6 181/4/6 184/4/6
f 185/4/6 186/4/6 188/4/6
f 188/4/6 186/4/6 189/4/6
f 187/4/6 188/4/6 191/4/6
f 191/4/6 188/4/6 192/4/6
f 189/4/6 190/4/6 193/4/6
f 193/4/6 190/4/6 194/4/6
f 192/4/6 193/4/6 195/4/6
f 195/4/6 193/4/6 196/4/6
f 197/1/6 198/1/6 199/1/6
f 199/1/6 198/1/6 200/1/6
